<svg xmlns="http://www.w3.org/2000/svg" viewBox="0 0 141.13 48.73"><defs><style>.cls-1{fill:#fff;}</style></defs><title>Asset 1</title><g id="Layer_2" data-name="Layer 2"><g id="Layer_1-2" data-name="Layer 1"><path class="cls-1" d="M100.08,27.55a.12.12,0,0,0,0-.16L99,26.3a.12.12,0,0,0-.15,0c-.22.24-.87.87-1.1,1.1a.12.12,0,0,0,0,.14l1.09,1.1a.12.12,0,0,0,.15,0h0l1.08-1.09"/><path class="cls-1" d="M22.34,20.73s.09-.08.14,0,0,.14,0,.14c-.13.91-.57,4.21-.8,8.51,0,.7-.07,1.41-.08,2.11v.24l.14-.18a3.53,3.53,0,0,1,2.87-1.22,3,3,0,0,1,3.08,2.64,4.68,4.68,0,0,1-1.8,4.19,6.76,6.76,0,0,1-3.67,1.15,5.84,5.84,0,0,1-3.78-.83c-.52-.43-1-1-1.06-2.65,0-.13,0-.3,0-.46a3.45,3.45,0,0,1,0-.44c0-.1,0-.13.07-.13s.05.08.07.13a1.12,1.12,0,0,0,.13.27c.78,1.54,3.48,1.77,4.39,1.75,1.9,0,2.68-.6,3.25-1.43a2.07,2.07,0,0,0,.35-1.57c-.15-.76-.71-1.14-1.65-1.14a2.41,2.41,0,0,0-2.4,2.52v.62c0,.11,0,.14,0,.15a.33.33,0,0,1-.17,0l-1.7-1a.62.62,0,0,1-.2-.16.36.36,0,0,1-.05-.25c0-1.51,0-3.22.09-4.31.11-2.16.29-4.27.53-6.32a1.74,1.74,0,0,1,.09-.36,1.22,1.22,0,0,1,.22-.24l2-1.66"/><path class="cls-1" d="M96.66,31.26c.37-.31,1.56-1.32,2-1.69.06-.06.1-.09.11-.08s0,.1,0,.17c-.08,1.55-.11,3.11-.11,4.62v1.56c0,.69.15,1.09.36,1.26a1.87,1.87,0,0,0,1.54.26h.11s.11,0,.12,0-.11.11-.18.13v0a4.66,4.66,0,0,1-1.79.54h-.28a2.21,2.21,0,0,1-1.36-.58l-.12-.12a.77.77,0,0,1-.16-.2,1.94,1.94,0,0,1-.41-1.23c0-.55,0-3.48,0-4.37a.81.81,0,0,1,0-.21.33.33,0,0,1,.09-.1"/><path class="cls-1" d="M95.6,32.92a3,3,0,0,0-3.09-2.64,3.49,3.49,0,0,0-2.86,1.22l-.15.18v-.24c0-.7,0-1.41.09-2.11.22-4.3.67-7.6.79-8.51,0,0,0-.11,0-.14s-.13,0-.13,0l-2,1.66a1.13,1.13,0,0,0-.22.24,1,1,0,0,0-.1.35c-.24,2-.42,4.17-.52,6.32-.06,1.09-.09,2.8-.11,4.3a.36.36,0,0,0,.07.25.9.9,0,0,0,.18.16l1.72,1a.29.29,0,0,0,.15,0s0,0,0-.15v-.62a2.42,2.42,0,0,1,2.4-2.52c.94,0,1.51.38,1.66,1.14a2.15,2.15,0,0,1-.35,1.57c-.59.84-1.36,1.4-3.26,1.43-.9,0-3.61-.21-4.39-1.75a.67.67,0,0,1-.11-.22c0-.05-.07-.17-.11-.17s-.05.05-.06.15a1.54,1.54,0,0,0,0,.2,2.3,2.3,0,0,1-.64,1.34,2.67,2.67,0,0,1-1.81.25,9,9,0,0,1-1.39-.33l-.09,0,0-.07a4.58,4.58,0,0,0,.05-3.74A3.22,3.22,0,0,0,79,30a4.86,4.86,0,0,0-3.17.65,2.4,2.4,0,0,0-.58,1.57c0,.1,0,.2,0,.21s.09,0,.17-.1a3.91,3.91,0,0,1,1.6-.8,3,3,0,0,1,1.8.21,2,2,0,0,1,1,1.54,2.44,2.44,0,0,1,0,.8l0,.14-.1-.1c-1.12-1.05-1.83-1.36-2.83-1.2a2.45,2.45,0,0,0-1.46.86C75.21,34,74.57,35,74,35.19c-1.19.48-6.35.26-7.09-.2-.44-.27-.38-.95-.35-1.18v0c0-.16.1-1.58.13-2.34a1.54,1.54,0,0,0-.28-1.18,1.32,1.32,0,0,0-.88-.31,1.89,1.89,0,0,0-1.17.54,12.07,12.07,0,0,0-2.48,2.76c0,.05-.09.15-.14.16s-.08-.1-.07-.15c0-1.1.13-4.08.13-4.23.23-4.31.66-7.61.8-8.51v0c0-.07,0-.15,0-.15s-.11,0-.12,0l-2,1.71a1.54,1.54,0,0,0-.22.24,1,1,0,0,0-.09.36v.06c-.18,1.57-.43,3.71-.52,6.26-.15,4.08-.13,6.07-.08,8.16,0,.54.29.7.45.73s.54.14.75-.25a18.42,18.42,0,0,1,3.67-5.1.31.31,0,0,1,.27-.12c.11,0,.11.14.1.27l-.05.68c0,.29,0,.56-.06,1.22s0,2.2,1.08,2.79,6.49.5,6.49.5c1.74,0,2-.32,2.37-.72a2.31,2.31,0,0,0,.37-.64,2.58,2.58,0,0,0,1.27,1.29,3.78,3.78,0,0,0,3.14-.26,3.8,3.8,0,0,0,.73-.53l.06,0,0,0a5.83,5.83,0,0,0,.84.56,5.74,5.74,0,0,0,2.38.4c1.52,0,2.05-.73,2.17-1.16,0-.09,0-.2.07-.32a2.34,2.34,0,0,0,.7.93,5.89,5.89,0,0,0,3.79.82,6.76,6.76,0,0,0,3.67-1.15,4.65,4.65,0,0,0,1.8-4.19M79,35.87a2.38,2.38,0,0,1-1.79.47c-.77-.11-1.22-.43-1.21-.89s.38-.75,1.07-.79c.51,0,1.15.33,1.92,1.09l.07.06Z"/><path class="cls-1" d="M56.84,25.12a7.31,7.31,0,0,0-3.65-2.81,8.58,8.58,0,0,0-3-.5s-1.44,0-2.23-.09a2.16,2.16,0,0,1-1-.37c-.12-.09-.15-.17-.24-.17s-.09.24-.1.44c-.11,1.42-.49,6.17-.55,7.33s-.07,2.8-.08,4.32a.39.39,0,0,0,.05.25,1,1,0,0,0,.18.16l1.72,1a.2.2,0,0,0,.15,0s0-.07,0-.19v-.37l0-.19,0-2.55,0-.36c0-.64,0-1.44.07-2.08,0-1.07.13-2.15.22-3.2h0a2.18,2.18,0,0,1,.25-1,1.28,1.28,0,0,1,.88-.58,4.67,4.67,0,0,1,2.56.34,5.57,5.57,0,0,1,2.44,1.79,5.45,5.45,0,0,1,.82,1.91,7.64,7.64,0,0,1-.62,4.49,5.27,5.27,0,0,1-3.57,2.72,11,11,0,0,1-2.21.24c-.92,0-4.47-.44-5.24-2.28-.08-.18-.09-.27-.18-.27s-.11.1-.15.27A4.31,4.31,0,0,1,43,34.61c-.19.33-.45,1.08-3.15,1-1.9,0-2.68-.05-3.4-.49a1,1,0,0,1-.37-.89c0-.12.19-3.66.22-4.08,0-.13,0-.24,0-.27s-.13,0-.23.12c-.35.3-1,.8-1.32,1.13-.17.13-.23.17-.27.27a.81.81,0,0,0-.07.33c-.06,1.14-.18,3.53-.18,3.53l0,0a3.75,3.75,0,0,1-1.47.4,4.75,4.75,0,0,1-2.5-.51,1.07,1.07,0,0,1-.51-.69,1.45,1.45,0,0,1,.16-1c.25-.4,1.42-2.09,1.42-2.09.11-.19.12-.25.1-.33a.51.51,0,0,0-.18-.24c-.15-.13-.42-.29-.73-.5l-.28-.18a.2.2,0,0,0-.28,0,6.66,6.66,0,0,0-1.47,4.27A3.65,3.65,0,0,0,29.53,37a4.23,4.23,0,0,0,3.15,1,3.29,3.29,0,0,0,2.07-.87l.06-.05.05.05a1.52,1.52,0,0,0,.45.38c1.08.6,3.54.61,4.83.6,2.79,0,3.65-.87,3.9-1.62a2.85,2.85,0,0,0,.55.7c1.05.94,3.23,1.11,4.42,1.11a13.09,13.09,0,0,0,4.53-.62,6.92,6.92,0,0,0,3.13-2.29,8.67,8.67,0,0,0,1.6-5.39,8,8,0,0,0-1.46-4.93"/><path class="cls-1" d="M17.86,33.15A2.34,2.34,0,0,0,18,30.62c-.59-1.27-1.82-1.93-3.65-1.76-.41-1.77-1.7-7.07-1.71-7.17a.74.74,0,0,0-.27-.42,1.08,1.08,0,0,0-.51-.1,1.83,1.83,0,0,0-1.07.29,2.13,2.13,0,0,0-.64,1c-.32.76-.87,2-1.57,3.48L7,29.34c-.76,1.6-2.7,5.34-2.9,5.71a1.6,1.6,0,0,1-.6.62,1.73,1.73,0,0,1-1.33,0,1.54,1.54,0,0,1-.95-1A1.76,1.76,0,0,1,1.13,34a1.94,1.94,0,0,1,.59-1.18s.08-.07.08-.1-.06,0-.11,0A2.41,2.41,0,0,0,0,34.7c0,.07,0,.13,0,.2a3,3,0,0,0,1.55,2.52c.52.29,2.55,1.11,3.74-.13a10,10,0,0,0,1.43-2.35c.6-1.18,2-4.06,2.23-4.56s1.59-3.29,2.28-4.66l.1-.19.78,3.84a3.81,3.81,0,0,0-2.69,2.91c-.36,1.44,1,3.51,4.4,5.1a15.71,15.71,0,0,0,2.07.72c.52.06.58-.17.6-.3a3,3,0,0,0-.15-.94c-.11-.43-1.09-4.27-1.46-5.9a2.5,2.5,0,0,1,2.27.74,2.28,2.28,0,0,1,.5,1.37c0,.19,0,.21,0,.22s.08,0,.19-.16m-4.67,1.41h0a6.54,6.54,0,0,1-1.64-1.17c-.38-.44-.68-.85,0-1.47a3.54,3.54,0,0,1,1-.51c.23,1.12.65,3.15.65,3.15"/><path class="cls-1" d="M31.28,28.32c.23-.23.61-.66.8-.88.05-.05.07-.09.11-.09s.08,0,.13.07c.27.22.73.59.88.74a1.68,1.68,0,0,1,.5,1.13,1.38,1.38,0,0,1,0,.46A4,4,0,0,1,33.22,31s-.07.13-.11.11,0-.1,0-.18,0-.09,0-.18a1.74,1.74,0,0,0-.44-1.1,13.84,13.84,0,0,0-1.32-1,.17.17,0,0,1-.1-.13s0-.06.07-.15"/><path class="cls-1" d="M71.42,32.64a.12.12,0,0,0,0-.16L70.33,31.4a.11.11,0,0,0-.15,0l-1.1,1.09a.13.13,0,0,0,0,.15l1.1,1.09a.1.1,0,0,0,.15,0l1.09-1.09"/><path class="cls-1" d="M129.36,41.5a15.4,15.4,0,0,0,9-7.59A20.11,20.11,0,0,0,141,22.33v-.07c-.15-1.3-.51-2.58-.8-2.6-1.21-.07-2.89,8.63-3.85,13.46a4.61,4.61,0,0,1-.44,1.5,3.76,3.76,0,0,1-.5.74c-.17.19-.44.38-.37,0,2.21-11.71,3.63-18,4.92-20.53a1,1,0,0,1,.45-.51q-.37-.83-.81-1.64C132.7.16,114.3-2.95,104,2.73c-4.46,2.47-4.07,14.21,1.91,26.12-.57-3.34.2-6.3,1.86-9.74,2.24-4.64,9.37-11.34,14.74-9.27,4.58,1.76,2.82,9,2.82,9s3.18-4.25,5.72-4.38c1.34-.07,3.63.92.87,5.41-3.23,5.27-8.62,7.63-10.51,6.53a4.22,4.22,0,0,1-1.8-3.35c-.11-.5-.38-2.18-1.92-2.3s-4.33,2-4,3,2.34.17,3.29.76,1.31,1.48,1,3c-1,4.65-4.88,7.44-7.58,6.79a6.62,6.62,0,0,1-1.83-.74c.84,1.33,1.71,2.6,2.6,3.79l.8-1.37a.13.13,0,0,1,.12-.07,7.39,7.39,0,0,0,4.34-1.27c-.69,2.26-1.61,3.72-4.73,3.42l.1.13c.58.29,1.27.59,2.07.9a11.09,11.09,0,0,0,9.5-1.06c.58-.38,2.93-1.76,3.92-3.64a5.89,5.89,0,0,1-1.19.06l-.68,0c-.46,0-2.9-.4-1.32-4.08.28-.66,1.35-3.2,2.87-2.64a2.89,2.89,0,0,1,2,2.37c.06.3.11.6.14.89A6,6,0,0,0,131.94,27c.27-1.51-.08-2.28-.5-2.35-.58-.1-1.61,2.76-1.77,2.68s0-.48.13-.91c1-3.35,2.45-4.62,2.94-4.63s1.15,1.54,1.15,3.6c0,3.24-1.9,7-4.88,8.41a8.46,8.46,0,0,1-1.57,3.73,11.71,11.71,0,0,1-11.78,3.93c-.47-.11-.91-.23-1.33-.36q.72.78,1.45,1.49c.19,0,.54.12,1.21.23a26.34,26.34,0,0,0,12.37-1.35m1.8-29.72-1.43,1.43a.13.13,0,0,1-.2,0l-1.45-1.43a.17.17,0,0,1,0-.2l1.45-1.44a.14.14,0,0,1,.2,0l1.43,1.42a.17.17,0,0,1,0,.21M122.5,29.58,121.07,31a.13.13,0,0,1-.2,0l-1.45-1.43a.17.17,0,0,1,0-.2l1.45-1.44a.14.14,0,0,1,.2,0l1.44,1.42a.17.17,0,0,1,0,.21m8.43,5.31,1.45-1.44a.14.14,0,0,1,.2,0L134,34.88a.17.17,0,0,1,0,.21l-1.43,1.43a.13.13,0,0,1-.2,0l-1.45-1.43a.17.17,0,0,1,0-.2M119.57,18.06c1.21.63,1,2.34,1.45,3.84a2.09,2.09,0,0,0,1.66,1.63s2.54-4.89.37-8.85a4.76,4.76,0,0,0-6.64-2.15,18.42,18.42,0,0,0-8.16,9.82c-2.3,6.21,1,8.33,3.06,8.69s5.19-1.71,5.29-2.77c.06-.56-.36-.91-1-1s-2.28.21-3.33-1c-1.3-1.55.94-5,2.18-6.19s3.21-2.89,5.08-1.92m7,11.07c-.85-.19-1.88,2.48-.81,2.72a1.79,1.79,0,0,0,.45,0,5.83,5.83,0,0,0,1.56-.32c-.09-1.57-.51-2.28-1.2-2.43m3.55,14.73a19.31,19.31,0,0,1-10.93.73,14,14,0,0,1-2-.68c4.62,4.07,9.1,5.81,11.94,4.25a25.06,25.06,0,0,0,9.29-9.72,20.09,20.09,0,0,1-8.32,5.42m1.14-26.31c-.78-.83-3.25.35-4.85,2.17a14.58,14.58,0,0,0-2.26,3.89,20.17,20.17,0,0,0,5-3c.85-.67,2.9-2.29,2.11-3.11"/></g></g></svg>